# xmcd
#
# Track frame offsets:
# 150
# 17911
# 31620
# 50915
# 69883
# 85442
# 98894
# 113048
# 123929
# 144876
# 160864
# 178811
# 196918
# 215109
#
# Disc length: 3061 seconds
#
#
# Revision: 0
# Processed by: cddbd v1.5.2PL0 Copyright (c) Steve Scherf et al.
# Submitted via: FreeRIP 2.944 
#
DISCID=bf0bf30e
DTITLE=Shunie Crampsey - Morning Sun And Memories
DYEAR=2008
DGENRE=Country
TTITLE0=The Boys Out On The Road
TTITLE1=My Rainy Day Room
TTITLE2=How I Only Wish You Knew
TTITLE3=I Can't Change The Past
TTITLE4=Different Strokes
TTITLE5=If I Can't Have Your Lovin'
TTITLE6=Morning Sun And Memories
TTITLE7=People Who Mend Broken Hearts
TTITLE8=Sail Me Down The River
TTITLE9=A Place I Once Called Home
TTITLE10=It's All In The Game
TTITLE11=Kick The Habit
TTITLE12=Mind Games
TTITLE13=This Heart's Been Broken In The Past
EXTD=
EXTT0=
EXTT1=
EXTT2=
EXTT3=
EXTT4=
EXTT5=
EXTT6=
EXTT7=
EXTT8=
EXTT9=
EXTT10=
EXTT11=
EXTT12=
EXTT13=
PLAYORDER=
